<?xml version="1.0" encoding="UTF-8"?><svg id="a" xmlns="http://www.w3.org/2000/svg" viewBox="0 0 254.37 419.24"><g id="b"><circle cx="236.61" cy="312.53" r="17.76" style="fill:#3c3c3b;"/></g><g id="c"><path d="m201.92,98.66c22.57-22.57,22.57-59.16,0-81.73s-59.16-22.57-81.73,0c-22.57,22.58-22.57,59.16,0,81.73l40.86,40.87,40.87-40.86h0Z" style="fill:#e84e0f;"/></g><g id="d"><path d="m154.59,153.05c-10.71-11.48-44.39-44.4-44.39-44.4-1-1-1.95-2.03-2.88-3.07-.2.68-.38,1.38-.54,2.1l-28.01,198.86c-5.24,37.78-23.49,56.67-54.75,56.67-11.74.42-18.68,6.37-20.8,17.83l-2.97,21.22c-1.56,11.04,4.18,16.69,17.19,16.98,73.71-1.7,115.66-38.41,125.85-110.15l20.4-145.58s-6.73-7.92-9.09-10.45h0Z" style="fill:#3c3c3b;"/></g></svg>